HIERARCHY
ROOT Hips
{
	OFFSET 0.000000 88.474243 0.000000
	CHANNELS 6 Xposition Yposition Zposition Zrotation Yrotation Xrotation 
	JOINT Hips_Spine
	{
		OFFSET 0.000000 0.000000 0.000000
		CHANNELS 3 Zrotation Yrotation Xrotation
		JOINT Spine
		{
			OFFSET 0.005100 8.711998 -0.691000
			CHANNELS 3 Zrotation Yrotation Xrotation
			JOINT Spine1
			{
				OFFSET -0.009200 8.660301 -1.275000
				CHANNELS 3 Zrotation Yrotation Xrotation
				JOINT Spine2
				{
					OFFSET 0.006300 9.852501 -1.857000
					CHANNELS 3 Zrotation Yrotation Xrotation
					JOINT Spine2_Neck
					{
						OFFSET 0.000000 0.000000 0.000000
						CHANNELS 3 Zrotation Yrotation Xrotation
						JOINT Neck
						{
							OFFSET 0.016300 11.420799 -0.263300
							CHANNELS 3 Zrotation Yrotation Xrotation
							End Site #name: Head
							{
								OFFSET -0.019200 9.262405 2.362500
							}
						}
					}
					JOINT Spine2_LeftShoulder
					{
						OFFSET 0.000000 0.000000 0.000000
						CHANNELS 3 Zrotation Yrotation Xrotation
						JOINT LeftShoulder
						{
							OFFSET 5.616900 6.732201 -0.345700
							CHANNELS 3 Zrotation Yrotation Xrotation
							JOINT LeftArm
							{
								OFFSET 10.664888 -0.183372 -2.440700
								CHANNELS 3 Zrotation Yrotation Xrotation
								JOINT LeftForeArm
								{
									OFFSET 27.459126 0.000000 0.000000
									CHANNELS 3 Zrotation Yrotation Xrotation
									End Site #name: LeftHand
									{
										OFFSET 21.306858 0.000000 0.000000
									}
								}
							}
						}
					}
					JOINT Spine2_RightShoulder
					{
						OFFSET 0.000000 0.000000 0.000000
						CHANNELS 3 Zrotation Yrotation Xrotation
						JOINT RightShoulder
						{
							OFFSET -5.580300 6.737503 -0.344400
							CHANNELS 3 Zrotation Yrotation Xrotation
							JOINT RightArm
							{
								OFFSET -10.679335 -0.188484 -2.383900
								CHANNELS 3 Zrotation Yrotation Xrotation
								JOINT RightForeArm
								{
									OFFSET -27.503529 0.000000 0.000000
									CHANNELS 3 Zrotation Yrotation Xrotation
									End Site #name: RightHand
									{
										OFFSET -21.306808 0.000000 0.000000
									}
								}
							}
						}
					}
				}
			}
		}
	}
	JOINT Hips_LeftUpLeg
	{
		OFFSET 0.000000 0.000000 0.000000
		CHANNELS 3 Zrotation Yrotation Xrotation
		JOINT LeftUpLeg
		{
			OFFSET 6.857700 -6.739601 0.312100
			CHANNELS 3 Zrotation Yrotation Xrotation
			JOINT LeftLeg
			{
				OFFSET -0.367590 -34.731552 -4.572400
				CHANNELS 3 Zrotation Yrotation Xrotation
				End Site #name: LeftFoot
				{
					OFFSET 0.367590 -34.656704 -6.067400
				}
			}
		}
	}
	JOINT Hips_RightUpLeg
	{
		OFFSET 0.000000 0.000000 0.000000
		CHANNELS 3 Zrotation Yrotation Xrotation
		JOINT RightUpLeg
		{
			OFFSET -6.876100 -6.733299 0.301000
			CHANNELS 3 Zrotation Yrotation Xrotation
			JOINT RightLeg
			{
				OFFSET 0.347353 -34.795158 -4.515900
				CHANNELS 3 Zrotation Yrotation Xrotation
				End Site #name: RightFoot
				{
					OFFSET -0.347353 -34.589367 -6.070300
				}
			}
		}
	}
}
MOTION
Frames: 10
Frame Time: 0.041667
0.162117 0.038543 -0.012062 0.439136 25.989732 -6.604628 -0.000000 0.000000 0.000000 -1.121202 -1.352514 0.677524 -0.029526 -1.390484 -0.520066 0.000000 0.000000 0.000000 -0.136510 -0.907046 -1.305475 3.607087 0.583561 -4.693606 0.249399 -1.623321 -1.989808 -17.531541 -6.151741 1.598150 -45.118161 0.056026 11.485438 -0.108416 -30.436828 5.435490 -0.195086 -0.996594 -0.019129 14.961532 10.757975 3.833263 56.522187 -5.510727 -4.950697 -0.649040 50.156005 0.774757 0.000000 0.000000 0.000000 -9.651137 17.982850 -3.928025 -1.155281 -0.761972 22.446740 0.000000 0.000000 0.000000 -4.666097 12.655657 -7.832315 5.826489 0.908833 -1.553595 
0.737642 -0.049081 0.182728 2.138940 29.290853 -6.986084 -0.000000 0.000000 0.000000 -3.783342 -2.277707 0.160066 0.296819 -1.298033 -0.886200 0.000000 0.000000 0.000000 -0.053837 -0.945014 -2.006997 4.452554 -0.897104 -3.496647 -0.407882 -1.397310 -2.714174 -22.718801 -3.702900 0.126386 -42.275953 0.373088 1.710836 -0.696677 -24.308124 3.029382 -0.198421 -1.260640 -0.638570 15.221789 7.925702 1.672551 58.548925 -1.778379 -3.792065 -0.710929 47.995027 -0.815721 0.000000 0.000000 -0.000000 -12.181453 15.705106 -1.110784 -0.831328 2.254763 20.850940 0.000000 0.000000 0.000000 -8.447778 13.842353 -7.757697 5.872520 0.662705 0.485269 
1.077536 -0.089677 0.263600 3.594953 27.943574 -7.025425 -0.000000 0.000000 0.000000 -5.195327 -3.541080 0.519175 0.244380 -1.062231 -0.925833 0.000000 0.000000 0.000000 0.487018 -1.321371 -2.090447 3.890393 -1.464866 -4.495890 -0.533729 -1.371312 -2.656686 -26.074263 -3.125566 1.469131 -43.428992 5.694011 -3.879022 -1.096382 -25.399960 3.284061 -0.062331 -1.255192 -0.631367 14.225990 6.995935 1.888883 57.530650 0.764402 -2.968075 -0.322930 41.886208 -0.695655 0.000000 0.000000 -0.000000 -13.998059 15.212989 0.663463 -1.438332 2.794425 19.335513 0.000000 0.000000 0.000000 -10.556740 14.433234 -10.204578 5.255546 -1.339961 6.109692 
1.406057 -0.133695 0.277513 4.407279 25.686277 -6.708858 -0.000000 0.000000 -0.000000 -6.176488 -3.209209 1.518766 0.301294 -1.033790 -0.931020 0.000000 0.000000 0.000000 0.729645 -1.436303 -1.962910 3.774263 -2.502226 -3.761614 -0.378066 -1.428345 -2.515242 -27.075027 -3.098620 2.481210 -42.316346 6.559307 -3.008474 -0.755181 -24.910526 5.495386 0.094669 -1.229905 -0.558012 13.135761 7.092952 1.769458 57.237854 4.058853 -2.887958 -0.138001 42.741626 -0.623864 0.000000 0.000000 -0.000000 -15.063690 15.274100 0.879774 -1.690194 3.501901 18.870532 0.000000 0.000000 0.000000 -12.059625 13.635303 -13.066784 4.599316 -1.776219 12.215007 
1.783135 -0.160255 0.250795 4.819079 24.431751 -6.198715 -0.000000 0.000000 -0.000000 -6.929608 -2.614694 1.560354 0.273598 -0.985099 -0.861705 0.000000 0.000000 0.000000 0.734997 -1.503587 -1.914385 3.539813 -3.298669 -2.636817 -0.326338 -1.490752 -2.311700 -28.792950 -2.434295 3.378392 -40.170965 6.389381 -2.551377 -0.210341 -21.086220 7.541206 0.135042 -1.206272 -0.438378 11.817864 7.272700 1.646654 58.186990 5.490588 -3.587257 -0.110553 43.263037 -0.693232 0.000000 0.000000 -0.000000 -15.921657 15.430127 0.768772 -1.768302 3.805656 18.452275 0.000000 0.000000 0.000000 -13.290018 12.420460 -15.072642 4.566245 -0.825249 16.607175 
2.187739 -0.171906 0.198594 4.938286 23.823806 -5.873957 -0.000000 0.000000 -0.000000 -7.352598 -2.196591 1.025244 0.162477 -0.942311 -0.757228 0.000000 0.000000 0.000000 0.506308 -1.528954 -1.862317 3.144855 -3.644739 -1.672852 -0.410781 -1.524711 -2.178412 -30.601042 -1.716688 3.884891 -38.101252 5.512670 -1.778589 0.262548 -16.317584 8.750283 0.049840 -1.177125 -0.391282 10.645352 7.331358 1.492989 59.509675 5.537238 -4.311895 0.017417 42.662585 -0.705064 0.000000 0.000000 -0.000000 -16.510613 15.656158 0.648920 -1.696311 3.896654 17.973491 0.000000 0.000000 0.000000 -14.188731 10.917069 -16.098274 4.931731 0.822802 19.505151 
2.598633 -0.171768 0.136193 4.809306 23.705181 -5.741725 -0.000000 0.000000 -0.000000 -7.463228 -1.870099 0.488284 -0.040480 -0.836837 -0.793219 0.000000 0.000000 0.000000 0.172833 -1.490211 -1.875220 2.745343 -3.638249 -0.965380 -0.610283 -1.478698 -2.188211 -32.209737 -0.897733 4.104702 -35.966429 4.707613 -1.158579 0.624740 -11.580632 9.425017 -0.162971 -1.106276 -0.402810 10.065803 7.220633 1.385766 60.882988 4.535003 -5.887792 0.192394 41.556870 -0.679129 0.000000 0.000000 -0.000000 -16.815408 15.766087 0.425931 -1.720173 3.961044 17.778543 0.000000 0.000000 0.000000 -14.759208 9.561707 -16.386502 5.315254 2.526691 21.320716 
2.994737 -0.161329 0.082213 4.552363 24.242968 -5.674938 -0.000000 0.000000 -0.000000 -7.607186 -1.557973 0.027484 -0.290578 -0.695690 -0.913973 0.000000 0.000000 0.000000 -0.136484 -1.433802 -1.953676 2.428087 -3.547300 -0.536476 -0.868270 -1.408671 -2.307878 -33.496276 -0.164960 4.108655 -34.165676 4.091919 -1.058187 0.908462 -8.234637 9.422751 -0.436823 -0.990141 -0.469104 9.857665 7.072280 1.348903 62.299090 3.137840 -6.506346 0.384575 40.343393 -0.649628 0.000000 0.000000 -0.000000 -16.935124 15.653044 0.024392 -1.662306 4.028562 17.946802 0.000000 0.000000 0.000000 -15.106529 8.204381 -16.197323 5.609321 4.091543 22.240284 
3.352213 -0.143269 0.048094 4.191469 25.246796 -5.604594 -0.000000 0.000000 -0.000000 -7.925052 -1.236805 -0.198513 -0.516983 -0.539932 -1.090386 0.000000 0.000000 0.000000 -0.408224 -1.363710 -2.073455 2.200811 -3.310184 -0.210349 -1.109694 -1.326521 -2.486602 -34.362376 0.360767 4.017070 -32.838146 3.766748 -1.252162 0.959688 -6.752143 9.067729 -0.731042 -0.861485 -0.564385 9.758984 6.904838 1.315236 63.347913 1.796620 -6.997309 0.552919 39.132856 -0.593398 0.000000 0.000000 -0.000000 -16.925010 15.424590 -0.426332 -1.487051 4.120583 18.218475 0.000000 0.000000 0.000000 -15.287138 6.628798 -15.822278 5.801662 5.513626 22.570768 
3.665390 -0.121237 0.029601 3.795702 26.397706 -5.529571 -0.000000 0.000000 -0.000000 -8.447004 -0.903293 -0.185309 -0.707009 -0.388242 -1.260936 0.000000 0.000000 0.000000 -0.665208 -1.284076 -2.206847 2.134594 -2.975452 -0.024612 -1.314510 -1.236609 -2.649921 -34.816888 0.738252 3.911624 -32.377764 3.453964 -1.490206 0.849378 -6.769758 8.667249 -1.029458 -0.705329 -0.628231 9.638722 6.762873 1.269578 64.055916 0.748543 -7.177508 0.667749 38.089478 -0.547084 0.000000 0.000000 -0.000000 -16.821377 15.213965 -0.824968 -1.248491 4.242722 18.400252 0.000000 0.000000 0.000000 -15.296333 4.980828 -15.323258 5.982992 6.976416 22.413434 
